<?xml version="1.0" encoding="UTF-8"?><svg id="uuid-7ecc2514-f4cc-4b88-ac67-a98ff47b912a" xmlns="http://www.w3.org/2000/svg" viewBox="0 0 512 512"><defs><style>.uuid-f5637026-fe65-44c6-ba2b-f0ce0ea59ef4{fill:#000;stroke-width:0px;}</style></defs><path class="uuid-f5637026-fe65-44c6-ba2b-f0ce0ea59ef4" d="M432.2,490.6H79.8c-24.6-15-30.4-37.3-29.8-65,1.5-64.5.5-129,.5-193.5,0-11.2,0-22.5,0-33.1h411.1c0,76.6-.9,151.6.5,226.6.5,27.7-5.2,50-29.8,65ZM229.3,357.9c-10.6-12.5-18.9-26.9-31.3-35.4-9.9-6.7-29.2-12.6-36.6-7.5-15.8,10.8-5.8,25.4,5.4,36.5,15.2,15.1,30.8,29.9,45.4,45.6,14.4,15.4,27.1,15.5,41.9.1,29.1-30.2,59.2-59.4,88.9-89,10.5-10.5,23.1-22.2,9-37-14.6-15.4-28-5.5-40,6.4-25.7,25.3-51.7,50.3-82.7,80.4Z"/><path class="uuid-f5637026-fe65-44c6-ba2b-f0ce0ea59ef4" d="M354.3,21.4c8.1,17.6,16.2,35.3,23.3,50.8,23.1,8.5,53.1,12.4,71.6,29,12.9,11.6,10,40.7,14.8,64.9-140.8,0-276.1,0-411.3,0-13.7-66.3-.1-81.1,76.5-87.3,9-20.3,17.2-38.9,25.4-57.4h23.5c8.1,18.4,16.3,36.9,25.2,57h101.3c10.1-21.8,18.1-39.4,26.2-57,7.8,0,15.7,0,23.5,0Z"/></svg>