<?xml version="1.0" encoding="UTF-8"?><svg id="uuid-ca35e8af-5492-4f4c-b4a4-94681a0acfdd" xmlns="http://www.w3.org/2000/svg" viewBox="0 0 512 512"><defs><style>.uuid-04fcac0d-1159-4c12-8cd2-6ce6be33c898{stroke-width:0px;}.uuid-04fcac0d-1159-4c12-8cd2-6ce6be33c898,.uuid-d97c38e1-329b-467c-b9ca-ec1d0775e19b{fill:#000;}.uuid-d97c38e1-329b-467c-b9ca-ec1d0775e19b{stroke:#fff;stroke-miterlimit:10;stroke-width:5px;}</style></defs><path class="uuid-04fcac0d-1159-4c12-8cd2-6ce6be33c898" d="M461.6,490.6H109.2c-24.6-15-30.4-37.3-29.8-65,1.5-64.5.5-129,.5-193.5,0-11.2,0-22.5,0-33.1h411.1c0,76.6-.9,151.6.5,226.6.5,27.7-5.2,50-29.8,65ZM258.6,357.9c-10.6-12.5-18.9-26.9-31.3-35.4-9.9-6.7-29.2-12.6-36.6-7.5-15.8,10.8-5.8,25.4,5.4,36.5,15.2,15.1,30.8,29.9,45.4,45.6,14.4,15.4,27.1,15.5,41.9.1,29.1-30.2,59.2-59.4,88.9-89,10.5-10.5,23.1-22.2,9-37-14.6-15.4-28-5.5-40,6.4-25.7,25.3-51.7,50.3-82.7,80.4Z"/><path class="uuid-04fcac0d-1159-4c12-8cd2-6ce6be33c898" d="M383.7,21.4c8.1,17.6,16.2,35.3,23.3,50.8,23.1,8.5,53.1,12.4,71.6,29,12.9,11.6,10,40.7,14.8,64.9-140.8,0-276.1,0-411.3,0-13.7-66.3-.1-81.1,76.5-87.3,9-20.3,17.2-38.9,25.4-57.4h23.5c8.1,18.4,16.3,36.9,25.2,57h101.3c10.1-21.8,18.1-39.4,26.2-57,7.8,0,15.7,0,23.5,0Z"/><path class="uuid-d97c38e1-329b-467c-b9ca-ec1d0775e19b" d="M223,120.9c1.2,53.2-39.6,102.8-98.9,104.7-55.3,1.8-102.8-41-105.3-98.9-2.4-55.1,41.9-102.7,98.4-105.3,56.1-2.6,103,41.5,105.8,99.4ZM169.4,180.3c-1.2-1.9-2.2-3.5-3.3-5.1-11.3-17-22.8-33.8-34-50.9-1.5-2.3-2.4-5.5-2.5-8.2-.2-15.8-.1-31.7-.1-47.5,0-1.9-.2-3.7-.3-5.6h-17c0,20.8,0,41.2.1,61.6,0,1.7,1.2,3.6,2.3,5.2,8.1,12.2,16.2,24.3,24.3,36.4,5.3,7.9,10.6,15.7,16.1,23.9,5-3.3,9.6-6.4,14.4-9.7Z"/></svg>