<?xml version="1.0" encoding="UTF-8"?><svg id="uuid-15a3fccf-9c12-485e-9199-2060c611c262" xmlns="http://www.w3.org/2000/svg" viewBox="0 0 512 512"><defs><style>.uuid-1bff0809-17a6-47ae-8125-4f6fd531cd07{fill:#000;stroke-width:0px;}</style></defs><path class="uuid-1bff0809-17a6-47ae-8125-4f6fd531cd07" d="M327.6,164.6c-1-7.3.2-13.9,2.9-20.2,7.2-17.4,26.2-28.4,44.6-25.8,19.2,2.7,34.8,18.3,36.5,37.4,3.7,41,7,82.1,10.5,123.1.7,8.6-1.6,16.3-5.9,23.7-1.1,1.8-1.5,4.3-1.5,6.5,0,50.9-.1,101.8,0,152.7,0,8.9-3.3,15.9-11.1,20.3-13.8,7.8-31-1.7-31.6-17.6-.4-10.1-.1-20.3-.1-30.4,0-36,0-72,0-107.9,0-2.9-.4-4.6-3.7-5.6-18.4-5.8-29-18.5-30.9-37.8-2.2-23.1-3.9-46.3-6-69.4-.3-3.7.6-5.3,4.1-6.6,20.1-7.5,36.1-20.2,47.3-38.6,6.8-11.3,4.3-24.1-5.8-30.4-10.1-6.2-23-2.8-30,8.1-4.9,7.6-10.8,14-19.3,18.5Z"/><path class="uuid-1bff0809-17a6-47ae-8125-4f6fd531cd07" d="M259.9,262.4c-7.4,0-14.7.1-22-.1-1.3,0-2.8-1.6-3.8-2.9-9-11.3-17.9-22.7-27-33.9-10.3-12.7-27.8-12.1-35.7,1.2-4.8,8.1-4.6,16.4,1.1,23.8,12.3,15.9,25,31.6,37.6,47.3,4,5,9.7,6.9,16,6.9,14.3.1,28.6.3,42.9-.1,4.6-.1,9.2-1.8,14.3-2.8.3,3.1.6,6.7.9,10.2,8.8,2.5,17.7,4.7,26.4,7.6,5.8,1.9,13,3.4,16.4,7.6,2.8,3.6,1,10.9,1.1,16.5,0,10.3,0,20.5,0,31.2-1-.4-1.6-.5-2.1-.8-24.7-16.2-52.2-22.7-81.4-22.8-17.5,0-30.2-7.1-40.3-21.5-16.7-23.9-34.3-47.2-51.8-70.7-16.5-22.2-10.3-52.8,13.4-64.8,17.3-8.7,39.1-5.1,51.2,10,14.8,18.4,28.5,37.8,42.6,56.8.1.2,0,.5.2,1.3Z"/><path class="uuid-1bff0809-17a6-47ae-8125-4f6fd531cd07" d="M271.5,373.1c-5.5-.3-10.5-.7-15.6-.9-14.9-.4-29.8-.7-44.7-1-9.9-.2-17.3-4.9-20.2-13.9-14.6-44.1-43.9-76.4-80.9-102.9-5.3-3.8-6.5-6.4-4.4-9.5,2-2.9,5.1-2.7,10.1.8,36.8,25.8,66.2,57.7,82.1,100.4,5.5,14.8,4.1,13.8,20.2,14.5,16.1.6,32.3.5,48.4,1.4,21.1,1.2,40.5,7.9,58,20.2,3.8,2.7,5.8,5.4,5.1,10.1-.3,2.2,0,4.5,0,7.9-14-12.4-29.1-21-47-25.4,0,1.7-.2,3.2-.2,4.7,0,19.2-.1,38.4.1,57.7,0,2.4,1.3,5.3,3,7.1,9.4,9.8,19,19.2,28.6,28.8,1,1,2,2.2,3.5,3.8h-82l-1.5-1.7c1.6-.9,3.5-1.5,4.7-2.8,10.1-9.9,20.1-19.9,30-30,1.2-1.2,2.5-3,2.5-4.5.2-21.4.1-42.7.1-64.9Z"/><path class="uuid-1bff0809-17a6-47ae-8125-4f6fd531cd07" d="M130.5,122.8c21.8-.2,40,17.7,40.2,39.6.2,22.8-17.9,41.1-40.7,41.2-21.9,0-40-17.8-40.2-39.6-.1-22.9,17.7-41,40.7-41.2Z"/><path class="uuid-1bff0809-17a6-47ae-8125-4f6fd531cd07" d="M356.5,107.6c-22.6-.2-40.1-18.1-39.8-40.8.3-22.3,18.5-40.2,40.8-39.9,22.2.3,39.6,18.4,39.4,41.3-.2,21.7-18.5,39.6-40.4,39.4Z"/><path class="uuid-1bff0809-17a6-47ae-8125-4f6fd531cd07" d="M335.2,304.8c5.9,5.6,12,11.5,18.2,17.2,1.2,1.1,2.8,2.1,4.4,2.5,6,1.5,7,5.2,7,11.1,0,42.1.4,84.2.5,126.3,0,6.4.8,12.5,4.7,17.8-10.3,10.6-29.7,4.6-33.8-10.3-.6-2.2-.9-4.5-.9-6.8,0-51.9,0-103.9,0-155.8,0-1,0-2,0-2Z"/><path class="uuid-1bff0809-17a6-47ae-8125-4f6fd531cd07" d="M297.5,207.1c-24.3-.5-45.2-6.2-65.3-15.3-6.7-3-9.3-11-6.5-18.1,2.6-6.6,10.1-9.9,17.7-7.5,10.2,3.2,20.3,7.2,30.7,9.7,17.5,4.1,35,4.1,52-2.8,11.4-4.7,20.5-12.1,26.7-23,4.5-8,12.6-10.3,20-5.9,7.3,4.4,9.1,12.4,4,20.3-15.6,24.4-38.8,36.8-66.7,41.5-4.8.8-9.8.9-12.5,1.1Z"/><path class="uuid-1bff0809-17a6-47ae-8125-4f6fd531cd07" d="M247.5,297.4c-7.2,0-14.4,0-21.7,0-5,0-8.9-1.7-12-5.6-11.8-14.9-23.8-29.8-35.5-44.7-5.5-7-4.8-15.1,1.2-20.2,6.4-5.3,15.1-4.5,20.9,2.4,9.8,11.6,19.5,23.4,28.9,35.3,2.6,3.2,5.2,4.4,9.3,4.3,10.3-.2,20.6-.3,30.9.2,9.5.4,14.3,4.8,14.9,12.5.6,8.6-5.6,15.5-14.3,15.8-.3,0-.6,0-.9,0-7.2,0-14.4,0-21.7,0Z"/></svg>